<svg version="1.1" xmlns="http://www.w3.org/2000/svg" xmlns:xlink="http://www.w3.org/1999/xlink" width="53.16019" height="43.32169" viewBox="0,0,53.16019,43.32169"><defs><linearGradient x1="294.7005" y1="163.14898" x2="345.44643" y2="163.14898" gradientUnits="userSpaceOnUse" id="color-1"><stop offset="0" stop-color="#4200ff"/><stop offset="1" stop-color="#ce00ff"/></linearGradient></defs><g transform="translate(-293.55357,-158.41294)"><g data-paper-data="{&quot;isPaintingLayer&quot;:true}" fill-rule="nonzero" stroke-linejoin="miter" stroke-miterlimit="10" stroke-dasharray="" stroke-dashoffset="0" style="mix-blend-mode: normal"><path d="M294.7005,167.0326v-7.76723c0,0 34.04369,0 42.66801,0c3.75252,0 8.07792,7.76723 8.07792,7.76723z" fill="url(#color-1)" stroke="none" stroke-width="0" stroke-linecap="butt"/><path d="M294.28625,190.64499c0,-6.09963 0,-22.99101 0,-22.99101h50.95305v33.03664c0,0 -31.39632,0 -40.49318,0c-4.62342,0 -10.45988,-6.01369 -10.45988,-10.04562z" fill="#ffffff" stroke="none" stroke-width="0" stroke-linecap="butt"/><g fill="none" stroke="#000000" stroke-width="2"><path d="M294.55357,191.10326v-31.69032" stroke-linecap="round"/><path d="M302.83862,200.73462h42.87513" stroke-linecap="round"/><path d="M304.3882,200.70651c-0.23791,0.01862 -0.47838,0.02811 -0.72107,0.02811c-5.03328,0 -9.11356,-4.08028 -9.11356,-9.11355c0,-0.12884 0.00268,-0.25705 0.00797,-0.38459" stroke-linecap="butt"/></g><g data-paper-data="{&quot;index&quot;:null}" fill="none" stroke="#000000" stroke-width="2"><path d="M345.71376,169.04431v31.69032" stroke-linecap="round"/><path d="M337.4287,159.41294h-42.87513" stroke-linecap="round"/><path d="M335.87913,159.44105c0.23791,-0.01862 0.47838,-0.02811 0.72107,-0.02811c5.03328,0 9.11355,4.08028 9.11355,9.11356c0,0.12884 -0.00268,0.25705 -0.00797,0.38458" stroke-linecap="butt"/></g><path d="M345.19594,167.44685h-49.81386" data-paper-data="{&quot;index&quot;:null}" fill="none" stroke="#000000" stroke-width="2" stroke-linecap="round"/><g fill="#000000" stroke="none" stroke-width="0" stroke-linecap="butt"><path d="M316.16859,183.5361c0,-2.19705 1.78106,-3.97812 3.97812,-3.97812c2.19705,0 3.97812,1.78106 3.97812,3.97812c0,2.19705 -1.78106,3.97812 -3.97812,3.97812c-2.19705,0 -3.97812,-1.78106 -3.97812,-3.97812z"/><path d="M301.61452,183.5361c0,-2.19705 1.78106,-3.97812 3.97812,-3.97812c2.19705,0 3.97812,1.78106 3.97812,3.97812c0,2.19705 -1.78106,3.97812 -3.97812,3.97812c-2.19705,0 -3.97812,-1.78106 -3.97812,-3.97812z"/><path d="M334.40737,187.51422c-2.19705,0 -3.97812,-1.78106 -3.97812,-3.97812c0,-2.19705 1.78106,-3.97812 3.97812,-3.97812c2.19705,0 3.97812,1.78106 3.97812,3.97812c0,2.19705 -1.78106,3.97812 -3.97812,3.97812z" data-paper-data="{&quot;index&quot;:null}"/></g></g></g></svg>