<svg version="1.1" xmlns="http://www.w3.org/2000/svg" xmlns:xlink="http://www.w3.org/1999/xlink" width="121" height="57" viewBox="0,0,121,57"><g transform="translate(-269,-161)"><g stroke-miterlimit="10"><path d="M269.5,165.5c0,-2.20914 1.79086,-4 4,-4h8c2,0 3,1 4,2l4,4c1,1 2,2 4,2h12c2,0 3,-1 4,-2l4,-4c1,-1 2,-2 4,-2h68c2.20914,0 4,1.79086 4,4v40c0,2.20914 -1.79086,4 -4,4h-68c-2,0 -3,1 -4,2l-4,4c-1,1 -2,2 -4,2h-12c-2,0 -3,-1 -4,-2l-4,-4c-1,-1 -2,-2 -4,-2h-8c-2.20914,0 -4,-1.79086 -4,-4z" fill="#4c97ff" stroke="#3373cc"/><path d="M317.5,169.5M333.5,169.5h8c8.83655,0 16,7.16344 16,16c0,8.83656 -7.16345,16 -16,16h-8c-8.83655,0 -16,-7.16344 -16,-16c0,-8.83656 7.16345,-16 16,-16z" fill="#ffffff" stroke="#3373cc"/><path d="" fill="#3373cc" stroke="none" visibility="hidden"/></g></g></svg>