<svg version="1.1" xmlns="http://www.w3.org/2000/svg" xmlns:xlink="http://www.w3.org/1999/xlink" width="195" height="57" viewBox="0,0,195,57"><g transform="translate(-232,-161)"><g stroke-miterlimit="10"><path d="M232.5,165.5c0,-2.20914 1.79086,-4 4,-4h8c2,0 3,1 4,2l4,4c1,1 2,2 4,2h12c2,0 3,-1 4,-2l4,-4c1,-1 2,-2 4,-2h142c2.20914,0 4,1.79086 4,4v40c0,2.20914 -1.79086,4 -4,4h-142c-2,0 -3,1 -4,2l-4,4c-1,1 -2,2 -4,2h-12c-2,0 -3,-1 -4,-2l-4,-4c-1,-1 -2,-2 -4,-2h-8c-2.20914,0 -4,-1.79086 -4,-4z" fill="#ff8c1a" stroke="#db6e00"/><path d="M316.5,201.5c-2.20914,0 -4,-1.79086 -4,-4v-24c0,-2.20914 1.79086,-4 4,-4h98c2.20914,0 4,1.79086 4,4v24c0,2.20914 -1.79086,4 -4,4z" fill="#ff8c1a" stroke="#db6e00"/><image x="394.5" y="180.5" width="0" height="0" xlink:href="data:," fill="#000000" stroke="none"/></g></g></svg>