<svg version="1.1" xmlns="http://www.w3.org/2000/svg" xmlns:xlink="http://www.w3.org/1999/xlink" width="37.04818" height="36.0199" viewBox="0,0,37.04818,36.0199"><g transform="translate(-301.47591,-161.99005)"><g stroke-miterlimit="10"><g stroke="#000000"><path d="M303.97591,173.23047v-8.74041h9.08317" fill="none" stroke-width="5" stroke-linecap="round"/><path d="M313.05908,195.50995h-9.08317v-8.74041" fill="none" stroke-width="5" stroke-linecap="round"/><path d="M326.94092,164.49005h9.08317v8.74041" fill="none" stroke-width="5" stroke-linecap="round"/><path d="M336.02409,186.76953v8.74041h-9.08317" fill="none" stroke-width="5" stroke-linecap="round"/><path d="M308.24058,180c0,-6.49455 5.26487,-11.75943 11.75942,-11.75943c6.49455,0 11.75942,5.26488 11.75942,11.75943c0,6.49455 -5.26487,11.75943 -11.75942,11.75943c-6.49455,0 -11.75942,-5.26488 -11.75942,-11.75943z" fill="none" stroke-width="5" stroke-linecap="butt"/><path d="M313.1686,181.23345v-2.4669h13.6628v2.4669z" fill="#ffffff" stroke-width="2" stroke-linecap="butt"/><path d="M321.23345,186.8314h-2.4669v-13.6628h2.4669z" fill="#ffffff" stroke-width="2" stroke-linecap="butt"/></g><path d="M303.97591,173.23048v-8.74041h9.08317" fill="none" stroke="#ffffff" stroke-width="2.5" stroke-linecap="round"/><path d="M313.05908,195.50996h-9.08317v-8.74041" fill="none" stroke="#ffffff" stroke-width="2.5" stroke-linecap="round"/><path d="M326.94092,164.49006h9.08317v8.74041" fill="none" stroke="#ffffff" stroke-width="2.5" stroke-linecap="round"/><path d="M336.02409,186.76954v8.74041h-9.08317" fill="none" stroke="#ffffff" stroke-width="2.5" stroke-linecap="round"/><path d="M308.24058,180.00001c0,-6.49455 5.26487,-11.75943 11.75942,-11.75943c6.49455,0 11.75942,5.26488 11.75942,11.75943c0,6.49455 -5.26487,11.75943 -11.75942,11.75943c-6.49455,0 -11.75942,-5.26488 -11.75942,-11.75943z" fill="none" stroke="#ffffff" stroke-width="2.5" stroke-linecap="butt"/><path d="M313.1686,181.23346v-2.4669h13.6628v2.4669z" fill="#ffffff" stroke="#ffffff" stroke-width="0" stroke-linecap="butt"/><path d="M321.23345,186.83141h-2.4669v-13.6628h2.4669z" fill="#ffffff" stroke="#ffffff" stroke-width="0" stroke-linecap="butt"/></g></g></svg>