<svg version="1.1" xmlns="http://www.w3.org/2000/svg" xmlns:xlink="http://www.w3.org/1999/xlink" width="122.27021" height="198.79107" viewBox="0,0,122.27021,198.79107"><g transform="translate(-258.91352,-80.60447)"><g data-paper-data="{&quot;isPaintingLayer&quot;:true}" fill-rule="nonzero" stroke-miterlimit="10" stroke-dasharray="" stroke-dashoffset="0" style="mix-blend-mode: normal"><path d="M316.40763,255.68141l-24.00838,-0.77655c-3.36506,-26.07918 7.37724,-51.70538 7.37724,-51.70538h40.38067c9.90103,24.52608 6.1477,51.70538 6.1477,51.70538l-23.87896,1.22954l-0.97069,-10.35402c-0.12943,-1.87667 -1.81195,-2.13552 -1.81195,-2.13552c-2.20023,0 -2.32965,1.94138 -2.32965,1.94138l-0.90598,10.09517z" fill="#ffffff" stroke="#000000" stroke-width="2" stroke-linecap="butt" stroke-linejoin="miter"/><path d="M292.20511,235.68521l0.58241,-5.69471c0,0 24.72022,6.34184 53.77618,0.71184l0.45299,5.56529c0,0 -26.72631,5.43586 -54.81159,-0.58241z" fill="#000000" stroke="#000000" stroke-width="2.07" stroke-linecap="round" stroke-linejoin="round"/><g stroke="#000000" stroke-width="2"><path d="M273.6973,227.01372c2.39437,2.91207 18.63723,4.72402 18.57252,4.72402l-0.32356,4.46517c-20.38447,-2.32965 -19.80206,-4.85345 -19.80206,-4.85345l1.5531,-4.33575z" fill="#0062ff" stroke-linecap="round" stroke-linejoin="round"/><path d="M292.33454,231.73774c0,0 -15.98402,-1.74724 -18.57252,-4.72402c1.81195,-13.91321 16.437,-27.56757 16.437,-27.56757l10.09517,6.01827c-3.04149,5.75942 -7.95965,26.27332 -7.95965,26.27332z" fill="#ffffff" stroke-linecap="round" stroke-linejoin="round"/><path d="M292.01098,242.93302v0c-0.06471,1.42368 -1.42368,2.52379 -2.97678,2.39437v0c-3.30034,0 -2.71793,-3.94747 -2.71793,-3.94747c-0.38828,2.78264 1.81195,4.98287 1.42368,5.56529c-6.47126,9.70689 -20.83746,-3.94747 -15.27218,-15.20746c0,0 0.5177,2.32965 19.41379,4.33575c0,0 0.19414,6.47126 0.12943,6.85954" fill="#0062ff" stroke-linecap="butt" stroke-linejoin="round"/><path d="M278.22719,214.52418c1.48839,-2.84736 3.17092,-4.78873 3.17092,-4.78873c1.16483,0.84126 2.00609,2.13552 2.00609,2.13552c0,0 -0.06471,2.45908 -1.74724,4.78873c-1.87667,2.5885 -3.36506,3.36506 -3.36506,3.36506c0,0 -1.61782,-0.38828 -2.26494,-0.77655c0,0 1.61782,-3.55919 2.20023,-4.72402z" fill="#c6c6c6" stroke-linecap="butt" stroke-linejoin="miter"/><path d="M277.38592,239.7621l1.87667,3.62391c-3.81804,1.74724 -5.56529,1.0354 -5.56529,1.0354c-1.22954,-0.84126 -2.0708,-4.78873 -2.0708,-4.78873c2.45908,0.64713 5.82414,0.12943 5.75942,0.12943z" fill="#c6c6c6" stroke-linecap="butt" stroke-linejoin="round"/></g><g stroke="#000000" stroke-width="2" stroke-linecap="round" stroke-linejoin="round"><path d="M365.39508,226.4313l1.5531,4.33575c0,0 0.58241,2.52379 -19.80206,4.85345l-0.32356,-4.46517c0,0.06471 16.17815,-1.74724 18.57252,-4.72402z" fill="#0062ff"/><path d="M365.39508,226.4313c-2.65322,3.04149 -18.63723,4.78873 -18.57252,4.72402c0,0 -4.91816,-20.5139 -7.95965,-26.27332l10.09517,-6.01827c0,0 14.62505,13.71907 16.437,27.56757z" fill="#ffffff"/><path d="M347.14612,242.41532c-0.06471,-0.38828 0.12943,-6.85954 0.12943,-6.85954c18.89608,-2.00609 19.41379,-4.33575 19.41379,-4.33575c5.56529,11.26 -8.80092,24.91436 -15.27218,15.20746c-0.38828,-0.58241 1.81195,-2.78264 1.42368,-5.56529c0,0 0.58241,3.94747 -2.65322,3.94747v0c-1.61782,0.12943 -2.97678,-0.97069 -3.04149,-2.39437v0" fill="#0062ff"/><path d="M363.13014,218.7305c-0.64713,0.38828 -2.26494,0.77655 -2.26494,0.77655c0,0 -1.48839,-0.77655 -3.36506,-3.36506c-1.68253,-2.32965 -1.74724,-4.78873 -1.74724,-4.78873c0,0 0.84126,-1.29425 2.00609,-2.13552c0,0 1.68253,1.94138 3.17092,4.78873c0.58241,1.16483 2.20023,4.72402 2.20023,4.72402z" fill="#c6c6c6"/><path d="M367.46589,239.11498c0,0 -0.84126,3.94747 -2.0708,4.78873c0,0 -1.74724,0.71184 -5.56529,-1.0354l1.87667,-3.62391c0,-0.06471 3.36506,0.45299 5.75942,-0.12943z" fill="#c6c6c6"/></g><g><path d="M331.16211,220.54245l-5.82414,10.09517h-11.64827l-5.82414,-10.09517l5.82414,-10.09517h11.64827z" fill="#c6c6c6" stroke="#000000" stroke-width="2" stroke-linecap="round" stroke-linejoin="round"/><g stroke="none" stroke-width="1" stroke-linecap="butt" stroke-linejoin="miter"><path d="M315.50166,227.59613l-4.07689,-6.92425l4.07689,-6.92425h8.02436l4.01218,6.92425l-4.01218,6.92425z" fill="#00ff01"/><path d="M323.13774,214.45947h-7.24781l-3.62391,6.21241l3.62391,6.21241h7.24781l3.62391,-6.21241l-3.62391,-6.21241M323.9143,213.03579l4.40046,7.63609l-4.40046,7.63609h-8.80092l-4.46517,-7.63609l4.46517,-7.63609h8.80092z" fill="#000000"/></g></g><g stroke="#000000" stroke-width="2" stroke-linecap="butt" stroke-linejoin="miter"><path d="M351.02888,189.22155c3.42977,-2.45908 6.60069,-5.50057 6.60069,-5.56529c4.72402,4.52988 4.20632,11.26 3.23563,13.65436c-4.78873,11.84241 -30.73849,21.29045 -30.73849,21.29045l-3.88276,-6.73011c17.60183,-6.34184 23.68482,-10.80701 25.75562,-14.10735c2.65322,-4.20632 -0.97069,-8.54207 -0.97069,-8.54207z" fill="#c6c6c6"/><path d="M337.7628,214.97717c-4.40046,-2.91207 -3.94747,-5.82414 -3.94747,-5.82414" fill="none"/><path d="M346.69314,210.70614c-5.24172,-0.97069 -5.24172,-5.24172 -5.24172,-5.24172" fill="none"/><path d="M354.45865,205.46441c-6.01827,0.06471 -6.60069,-3.88276 -6.60069,-3.88276" fill="none"/><path d="M359.95922,199.05787c-5.30643,1.22954 -7.7008,-1.68253 -7.7008,-1.68253" fill="none"/><path d="M360.8652,188.57442c-1.68253,4.14161 -7.76551,4.5946 -7.76551,4.5946" fill="none"/></g><g stroke="#000000" stroke-linecap="round" stroke-linejoin="round"><path d="M349.41107,199.44614c-4.14161,2.84736 -8.80092,5.17701 -13.78379,6.6654c-4.98287,1.5531 -10.28931,2.39437 -15.78988,2.39437c-5.50057,0 -10.80701,-0.84126 -15.78988,-2.39437c-4.98287,-1.5531 -9.70689,-3.81804 -13.91321,-6.73011v-9.2539c4.20632,2.84736 8.93034,5.17701 13.91321,6.73011c4.98287,1.5531 10.28931,2.39437 15.78988,2.39437c5.50057,0 10.80701,-0.84126 15.78988,-2.39437c4.98287,-1.5531 9.57747,-3.88276 13.78379,-6.73011v9.31862z" fill="#ffffff" stroke-width="2"/><path d="M318.67257,205.59384l-0.97069,-1.74724l0.97069,-1.74724h2.0708l0.97069,1.74724l-0.97069,1.74724z" fill="#000000" stroke-width="2.25"/><path d="M344.36348,199.57557l-1.5531,-0.84126v-1.81195l1.5531,-0.90598l1.48839,0.90598v1.81195z" fill="#000000" stroke-width="2"/><path d="M294.79362,199.05787l-1.5531,-0.90598v-1.74724l1.5531,-0.90598l1.5531,0.90598v1.74724z" fill="#000000" stroke-width="2"/></g><g stroke="#000000" stroke-linecap="butt" stroke-linejoin="round"><path d="M268.77915,119.39663c-9.64218,-13.71907 -3.30034,-30.93263 -3.30034,-30.93263c5.95356,12.23068 16.17815,14.56034 16.17815,14.56034c0,0 -12.8131,16.24287 -12.87781,16.37229v0z" fill="#00ff01" stroke-width="2"/><path d="M268.00259,120.88502c4.20632,-7.95965 8.41264,-13.8485 14.49563,-18.57252l4.78873,2.45908c-6.73011,5.24172 -12.10126,12.10126 -15.66045,19.93149l-3.62391,-3.81804z" fill="#000000" stroke-width="2.07"/></g><g stroke="#000000" stroke-linecap="butt" stroke-linejoin="round"><path d="M371.73692,119.39663v0c-0.06471,-0.12943 -12.87781,-16.37229 -12.87781,-16.37229c0,0 10.22459,-2.32965 16.17815,-14.56034c-0.06471,0 6.27712,17.21356 -3.30034,30.93263z" fill="#00ff01" stroke-width="2"/><path d="M372.51347,120.88502l-3.62391,3.81804c-3.55919,-7.83023 -8.99505,-14.68976 -15.66045,-19.93149l4.78873,-2.45908c6.08299,4.72402 10.28931,10.61287 14.49563,18.57252z" fill="#000000" stroke-width="2.07"/></g><path d="M271.23823,167.02512l-6.21241,-1.5531c0,0 -4.27103,-5.50057 -5.1123,-16.24287c-0.71184,-9.57747 2.71793,-16.95471 2.71793,-16.95471l6.85954,-1.68253c0,0 -2.20023,6.92425 -2.20023,18.50781c0,9.57747 3.94747,17.92539 3.94747,17.92539z" fill="#0062ff" stroke="#000000" stroke-width="2" stroke-linecap="round" stroke-linejoin="round"/><path d="M372.77232,149.09973c0,-11.58356 -2.20023,-18.50781 -2.20023,-18.50781l6.85954,1.68253c0,0 3.36506,7.37724 2.65322,16.95471c-0.84126,10.74229 -5.1123,16.24287 -5.1123,16.24287l-6.27712,1.5531c0,0 4.01218,-8.34793 4.07689,-17.92539z" fill="#0062ff" stroke="#000000" stroke-width="2" stroke-linecap="round" stroke-linejoin="round"/><path d="M271.88535,124.76778c5.24172,-12.2954 15.66045,-19.93149 15.66045,-19.93149c4.01218,-3.17092 8.60678,-5.75942 13.46022,-7.63609c1.42368,-0.58241 2.91207,-1.0354 4.40046,-1.48839c0,0 7.57138,-1.68253 14.56034,-1.68253c7.7008,0 14.56034,1.68253 14.56034,1.68253c1.48839,0.38828 2.91207,0.84126 4.33575,1.42368v0c4.91816,1.87667 9.44804,4.46517 13.52494,7.63609c6.6654,5.24172 12.10126,12.10126 15.66045,19.93149c0.90598,1.94138 1.61782,3.88276 2.26494,5.88885c1.61782,4.98287 2.45908,10.35402 2.45908,15.85459c0,7.31253 -1.48839,14.23678 -4.20632,20.57861c-6.01827,14.17206 -17.99011,25.1085 -32.8093,29.7678c-4.98287,1.5531 -10.28931,2.39437 -15.78988,2.39437c-5.50057,0 -10.80701,-0.84126 -15.78988,-2.39437c-21.41988,-6.73011 -36.9509,-26.72631 -36.9509,-50.34642c0,-7.7008 1.81195,-15.01333 4.65931,-21.67873z" fill="#ffffff" stroke="#000000" stroke-width="2" stroke-linecap="butt" stroke-linejoin="miter"/><path d="M320.03154,199.252c-8.15379,0 -15.78988,-2.39437 -15.78988,-2.39437l2.0708,-4.91816c4.27103,1.68253 8.86563,2.13552 13.71907,2.13552c4.85345,0 9.44804,-0.45299 13.71907,-2.13552l2.0708,4.91816c0,0 -7.63609,2.39437 -15.78988,2.39437z" fill="#c6c6c6" stroke="#000000" stroke-width="2" stroke-linecap="butt" stroke-linejoin="miter"/><g stroke-linecap="butt" stroke-linejoin="miter"><path d="M271.36765,148.12904c8.34793,-18.63723 48.59918,-19.02551 48.59918,-19.02551c0,0 40.31596,0.38828 48.66389,19.09022c0,0 2.32965,39.66883 -48.66389,40.05711c-50.99354,-0.38828 -48.59918,-40.12182 -48.59918,-40.12182z" fill="#000000" stroke="none" stroke-width="1"/><path d="M271.36765,148.12904c8.34793,-18.63723 48.59918,-19.02551 48.59918,-19.02551c0,0 40.31596,0.38828 48.66389,19.09022c0,0 2.32965,39.66883 -48.66389,40.05711c-50.99354,-0.38828 -48.59918,-40.12182 -48.59918,-40.12182z" fill="none" stroke="#000000" stroke-width="2.07"/></g><path d="M360.08865,154.34145c-1.61782,8.60678 -8.41264,12.10126 -9.64218,12.55425c-7.50666,2.78264 -14.30149,-0.19414 -17.08413,-2.84736c-1.42368,-1.42368 -0.90598,-3.81804 0.97069,-4.52988l22.067,-8.28321c2.00609,-0.77655 4.01218,0.97069 3.68862,3.10621z" fill="#00ff01" stroke="#000000" stroke-width="2.1582" stroke-linecap="butt" stroke-linejoin="miter"/><path d="M283.53362,151.23524l22.067,8.28321c1.87667,0.71184 2.39437,3.10621 0.97069,4.52988c-2.78264,2.65322 -9.57747,5.63 -17.08413,2.84736c-1.22954,-0.45299 -8.02436,-3.94747 -9.64218,-12.55425c-0.32356,-2.13552 1.68253,-3.88276 3.68862,-3.10621z" fill="#00ff01" stroke="#000000" stroke-width="2.1582" stroke-linecap="butt" stroke-linejoin="miter"/><g stroke="#000000" stroke-linecap="round" stroke-linejoin="round"><path d="M338.08636,96.74722l2.65322,4.98287c0,4.07689 -9.2539,8.15379 -20.70804,8.15379c-11.45413,0 -20.70804,-4.07689 -20.70804,-8.15379l2.65322,-4.91816l-0.25885,0.58241c0,3.55919 8.15379,7.24781 18.24896,7.24781c10.09517,0 18.24896,-3.68862 18.24896,-7.24781c-0.06471,0 -0.12943,-0.64713 -0.12943,-0.64713z" fill="#828282" stroke-width="1.89"/><path d="M331.16211,92.34676c4.27103,1.16483 7.05368,3.04149 7.05368,5.1123c0,3.55919 -8.15379,7.24781 -18.24896,7.24781c-10.09517,0 -18.24896,-3.68862 -18.24896,-7.24781c0,-2.13552 2.78264,-4.01218 7.11839,-5.17701v0" fill="#828282" stroke-width="1.89"/><path d="M328.12062,83.93412l6.40655,11.71298v0c0,2.91207 -6.47126,5.37115 -14.56034,5.37115c-8.08908,0 -14.56034,-2.45908 -14.56034,-5.37115v0l6.40655,-11.71298" fill="#c6c6c6" stroke-width="2"/><path d="M311.68361,84.58125c0,-1.64403 3.70852,-2.97678 8.28321,-2.97678c4.57469,0 8.28321,1.33275 8.28321,2.97678c0,1.64403 -3.70852,2.97678 -8.28321,2.97678c-4.57469,0 -8.28321,-1.33275 -8.28321,-2.97678z" fill="#c6c6c6" stroke-width="2"/></g><g stroke="#000000" stroke-width="2"><path d="M294.79362,267.91209c-2.13552,-6.73011 -2.39437,-14.62505 -2.39437,-14.62505c16.63114,5.75942 24.07309,0.32356 24.07309,0.32356c0,0 0.19414,7.37724 -1.81195,14.23678h-19.86677z" fill="#0062ff" stroke-linecap="butt" stroke-linejoin="miter"/><path d="M292.78753,256.91094c-0.12943,-0.32356 -0.45299,-4.46517 -0.45299,-4.46517c9.18919,3.17092 17.92539,3.75333 24.33194,0.32356l-0.25885,5.04758c-12.2954,2.84736 -23.42597,-0.45299 -23.62011,-0.90598z" fill="#0062ff" stroke-linecap="butt" stroke-linejoin="miter"/><path d="M288.84006,273.73623h29.2501c0,1.81195 0,4.52988 0,4.52988l-29.2501,0.12943v-4.65931z" fill="#0062ff" stroke-linecap="round" stroke-linejoin="round"/><path d="M303.65925,263.31749c12.48954,0 14.49563,8.67149 14.49563,10.48344h-29.2501c-0.06471,-0.06471 0.84126,-10.48344 14.75448,-10.48344z" fill="#0062ff" stroke-linecap="round" stroke-linejoin="round"/><path d="M297.12327,253.02819c6.08299,2.39437 14.49563,0.38828 14.49563,0.38828v6.08299c-7.95965,2.00609 -14.49563,-0.38828 -14.49563,-0.38828c0,-3.49448 0,-6.08299 0,-6.08299z" fill="#c6c6c6" stroke-linecap="butt" stroke-linejoin="round"/></g><g stroke="#000000" stroke-width="2"><path d="M344.03992,267.84738h-19.86677c-2.00609,-6.85954 -1.81195,-14.23678 -1.81195,-14.23678c0,0 7.44195,5.43586 24.07309,-0.32356c0,0 -0.19414,7.89494 -2.39437,14.62505z" fill="#0062ff" stroke-linecap="butt" stroke-linejoin="miter"/><path d="M346.04601,256.91094c-0.19414,0.45299 -11.32471,3.75333 -23.62011,0.90598l-0.25885,-5.04758c6.40655,3.42977 15.14275,2.84736 24.33194,-0.32356l-0.45299,4.46517z" fill="#0062ff" stroke-linecap="butt" stroke-linejoin="miter"/><path d="M349.99348,273.73623v4.65931l-29.2501,-0.06471c0,0 0,-2.71793 0,-4.52988l29.2501,-0.06471z" fill="#0062ff" stroke-linecap="round" stroke-linejoin="round"/><path d="M335.239,263.31749c13.8485,0 14.75448,10.41873 14.75448,10.48344h-29.2501c0,-1.81195 2.00609,-10.48344 14.49563,-10.48344z" fill="#0062ff" stroke-linecap="round" stroke-linejoin="round"/><path d="M341.71027,253.02819c0,0 0,2.5885 0,6.08299c0,0 -6.53597,2.39437 -14.49563,0.38828v-6.08299c0,0 8.41264,2.00609 14.49563,-0.38828z" fill="#c6c6c6" stroke-linecap="butt" stroke-linejoin="round"/></g></g></g></svg>