<svg version="1.1" xmlns="http://www.w3.org/2000/svg" xmlns:xlink="http://www.w3.org/1999/xlink" width="25.47676" height="25.47676" viewBox="0,0,25.47676,25.47676"><g transform="translate(-307.26162,-167.26162)"><g stroke-miterlimit="10"><path d="M324.03963,170.58939c2.37108,1.01916 4.27996,2.90823 5.32492,5.26547" fill="none" stroke="#28ff00" stroke-width="5"/><path d="M329.98191,177.71265c0.16783,0.73545 0.25647,1.50105 0.25647,2.28735c0,5.6545 -4.58388,10.23838 -10.23838,10.23838c-5.6545,0 -10.23838,-4.58388 -10.23838,-10.23838c0,-5.6545 4.58388,-10.23838 10.23838,-10.23838c0.75062,0 1.48237,0.08078 2.18703,0.23411" fill="none" stroke="#00ceff" stroke-width="5"/><path d="M317.5,180c0,-1.38071 1.11929,-2.5 2.5,-2.5c1.38071,0 2.5,1.11929 2.5,2.5c0,1.38071 -1.11929,2.5 -2.5,2.5c-1.38071,0 -2.5,-1.11929 -2.5,-2.5z" fill="#9966ff" stroke="none" stroke-width="0.5"/></g></g></svg>